# xmcd CD database file
#
# Track frame offsets:
#	150
#	2532
#	30892
#	62645
#	83015
#	132865
#	155087
#	195745
#	214642
#	239717
#	269967
#
# Disc length: 4113 seconds
#
# Revision: 0
# Processed by: cddbd v1.5.2PL0 Copyright (c) Steve Scherf et al.
# Submitted via: CDex 1.70beta2
#
DISCID=94100f0b
DTITLE=Pema Chodron - The Places That Scare You (Disk 3)
DYEAR=2001
DGENRE=New Age
TTITLE0=Introduction
TTITLE1=ability to rejoice
TTITLE2=Appreciating others
TTITLE3=Enhancing the training in joy
TTITLE4=Thinking bigger
TTITLE5=Meeting the enemy
TTITLE6=Training in the limitless qualities
TTITLE7=Fresh start
TTITLE8=Strength
TTITLE9=Practicing bodhicitta
TTITLE10=Three kinds of laziness
EXTD=YEAR: 2001
EXTT0=
EXTT1=
EXTT2=
EXTT3=
EXTT4=
EXTT5=
EXTT6=
EXTT7=
EXTT8=
EXTT9=
EXTT10=
PLAYORDER=
